<svg width="24" height="24" viewBox="0 0 24 24" xmlns="http://www.w3.org/2000/svg">
  <defs>
    <linearGradient id="heartGradient" x1="0%" y1="0%" x2="100%" y2="100%">
      <stop offset="0%" style="stop-color:#d4af37;stop-opacity:1" />
      <stop offset="100%" style="stop-color:#b8860b;stop-opacity:1" />
    </linearGradient>
  </defs>
  
  <!-- Heart shape -->
  <path d="M12 21.35L10.55 20.03C5.4 15.36 2 12.28 2 8.5C2 5.42 4.42 3 7.5 3C9.24 3 10.91 3.81 12 5.09C13.09 3.81 14.76 3 16.5 3C19.58 3 22 5.42 22 8.5C22 12.28 18.6 15.36 13.45 20.04L12 21.35Z" 
        fill="none" 
        stroke="url(#heartGradient)" 
        stroke-width="1.5" 
        stroke-linecap="round" 
        stroke-linejoin="round"/>
  
  <!-- Heart fill for active state -->
  <path d="M12 21.35L10.55 20.03C5.4 15.36 2 12.28 2 8.5C2 5.42 4.42 3 7.5 3C9.24 3 10.91 3.81 12 5.09C13.09 3.81 14.76 3 16.5 3C19.58 3 22 5.42 22 8.5C22 12.28 18.6 15.36 13.45 20.04L12 21.35Z" 
        fill="url(#heartGradient)" 
        opacity="0.2"/>
  
  <!-- Decorative elements -->
  <g fill="#d4af37" opacity="0.4">
    <circle cx="8" cy="8" r="1" />
    <circle cx="16" cy="8" r="1" />
  </g>
  
  <!-- Small highlight -->
  <path d="M9 7C9.5 6.5 10.2 6.2 11 6.2C10.8 5.8 10.5 5.5 10 5.5C9.2 5.5 8.5 6.2 8.5 7C8.5 7.3 8.7 7.5 9 7Z" 
        fill="#f7dc6f" 
        opacity="0.6"/>
</svg>
